<?xml version="1.0" encoding="utf-8"?><!-- Uploaded to: SVG Repo, www.svgrepo.com, Generator: SVG Repo Mixer Tools -->
<svg fill="#000000" width="800px" height="800px" viewBox="0 0 24 24" id="toilet-paper-4" data-name="Flat Line" xmlns="http://www.w3.org/2000/svg" class="icon flat-line"><path id="secondary" d="M3,9V20l1.66-1,1.67,1L8,19l1.67,1,1.67-1L13,20V9c0-2.76,1.79-5,4-5H7C4.79,4,3,6.24,3,9Z" style="fill: rgb(44, 169, 188); stroke-width: 2;"></path><line id="primary-upstroke" x1="17" y1="9.05" x2="17" y2="8.95" style="fill: none; stroke: rgb(0, 0, 0); stroke-linecap: round; stroke-linejoin: round; stroke-width: 2.5;"></line><path id="primary" d="M17,14H13m0-5c0,2.76,1.79,5,4,5s4-2.24,4-5-1.79-5-4-5S13,6.24,13,9Z" style="fill: none; stroke: rgb(0, 0, 0); stroke-linecap: round; stroke-linejoin: round; stroke-width: 2;"></path><path id="primary-2" data-name="primary" d="M13,9V20l-1.67-1L9.66,20,8,19,6.33,20,4.66,19,3,20V9C3,6.24,4.79,4,7,4H17" style="fill: none; stroke: rgb(0, 0, 0); stroke-linecap: round; stroke-linejoin: round; stroke-width: 2;"></path></svg>